<mxfile host="app.diagrams.net" modified="2024-04-24T15:20:47.620Z" agent="Mozilla/5.0 (Macintosh; Intel Mac OS X 10_15_7) AppleWebKit/605.1.15 (KHTML, like Gecko) Version/15.6 Safari/605.1.15" version="24.3.0" etag="Zae975Ia8XKSalile_t_" type="github">
  <diagram name="Page-1" id="-Y135Cg8UdT1SPrm5SDO">
    <mxGraphModel>
      <root>
        <mxCell id="0" />
        <mxCell id="1" parent="0" />
      </root>
    </mxGraphModel>
  </diagram>
</mxfile>
